<svg width="26" height="26" viewBox="0 0 26 26" fill="none" xmlns="http://www.w3.org/2000/svg">
<g id="gps_fixed_24px">
<path id="icon/device/gps_fixed_24px" fill-rule="evenodd" clip-rule="evenodd" d="M22.336 11.7333C21.8453 7.28532 18.3146 3.75465 13.8666 3.26398V1.06665H11.7333V3.26398C7.28532 3.75465 3.75465 7.28532 3.26398 11.7333H1.06665V13.8666H3.26398C3.75465 18.3146 7.28532 21.8453 11.7333 22.336V24.5333H13.8666V22.336C18.3146 21.8453 21.8453 18.3146 22.336 13.8666H24.5333V11.7333H22.336ZM12.8 8.53335C10.4426 8.53335 8.53332 10.4427 8.53332 12.8C8.53332 15.1574 10.4426 17.0667 12.8 17.0667C15.1573 17.0667 17.0666 15.1574 17.0666 12.8C17.0666 10.4427 15.1573 8.53335 12.8 8.53335ZM5.33332 12.8C5.33332 16.928 8.67198 20.2667 12.8 20.2667C16.928 20.2667 20.2667 16.928 20.2667 12.8C20.2667 8.672 16.928 5.33333 12.8 5.33333C8.67198 5.33333 5.33332 8.672 5.33332 12.8Z" fill="#3E4462"/>
</g>
</svg>
