<svg width="33" height="25" viewBox="0 0 33 25" fill="none" xmlns="http://www.w3.org/2000/svg">
<path fill-rule="evenodd" clip-rule="evenodd" d="M15 3H3C2.1675 3 1.5075 3.6675 1.5075 4.5L1.5 13.5C1.5 14.3325 2.1675 15 3 15H15C15.8325 15 16.5 14.3325 16.5 13.5V4.5C16.5 3.6675 15.8325 3 15 3ZM8.25 12.75H9.75V12H10.5C10.9125 12 11.25 11.6625 11.25 11.25V9C11.25 8.5875 10.9125 8.25 10.5 8.25H8.25V7.5H11.25V6H9.75V5.25H8.25V6H7.5C7.0875 6 6.75 6.3375 6.75 6.75V9C6.75 9.4125 7.0875 9.75 7.5 9.75H9.75V10.5H6.75V12H8.25V12.75ZM3 13.5H15V4.5H3V13.5Z" fill="black" fill-opacity="0.54"/>
<path fill-rule="evenodd" clip-rule="evenodd" d="M26.5 4.75C26.5 5.85 25.6 6.75 24.5 6.75C23.4 6.75 22.5 5.85 22.5 4.75C22.5 3.65 23.4 2.75 24.5 2.75C25.6 2.75 26.5 3.65 26.5 4.75ZM9 18.25C9 15.45 11.2 13.25 14 13.25C16.8 13.25 19 15.45 19 18.25C19 21.05 16.8 23.25 14 23.25C11.2 23.25 9 21.05 9 18.25ZM14 21.75C12.1 21.75 10.5 20.15 10.5 18.25C10.5 16.35 12.1 14.75 14 14.75C15.9 14.75 17.5 16.35 17.5 18.25C17.5 20.15 15.9 21.75 14 21.75ZM28.1 12.25C26 12.25 24.3 11.45 23 10.15L22.2 9.35L19.8 11.75L22 14.05V20.25H20V15.25L16.8 12.45C16.4 12.15 16.2 11.65 16.2 11.05C16.2 10.55 16.4 10.05 16.8 9.65L19.6 6.85C19.9 6.45 20.4 6.25 21 6.25C21.6 6.25 22.1 6.45 22.6 6.85L24.5 8.75C25.4 9.65 26.6 10.25 28.1 10.25V12.25ZM28 13.25C25.2 13.25 23 15.45 23 18.25C23 21.05 25.2 23.25 28 23.25C30.8 23.25 33 21.05 33 18.25C33 15.45 30.8 13.25 28 13.25ZM24.5 18.25C24.5 20.15 26.1 21.75 28 21.75C29.9 21.75 31.5 20.15 31.5 18.25C31.5 16.35 29.9 14.75 28 14.75C26.1 14.75 24.5 16.35 24.5 18.25Z" fill="black" fill-opacity="0.54"/>
</svg>
